<?xml version="1.0" standalone="no"?>
<!DOCTYPE svg PUBLIC "-//W3C//DTD SVG 20010904//EN"
 "http://www.w3.org/TR/2001/REC-SVG-20010904/DTD/svg10.dtd">
<svg version="1.0" xmlns="http://www.w3.org/2000/svg"
 width="736.000000pt" height="736.000000pt" viewBox="0 0 736.000000 736.000000"
 preserveAspectRatio="xMidYMid meet">
<metadata>
Created by potrace 1.16, written by Peter Selinger 2001-2019
</metadata>
<g transform="translate(0.000000,736.000000) scale(0.100000,-0.100000)"
fill="#000000" stroke="none">
<path d="M3170 6756 c-150 -26 -262 -64 -390 -133 -121 -65 -197 -122 -298
-222 -184 -184 -304 -414 -348 -665 -18 -103 -20 -307 -4 -416 24 -168 112
-386 218 -535 62 -88 187 -215 274 -279 l67 -49 -89 -29 c-95 -30 -130 -59
-130 -105 0 -35 24 -77 55 -93 24 -13 36 -12 113 9 264 73 415 98 642 107 261
11 515 -20 780 -96 58 -16 115 -30 128 -30 37 0 82 52 82 95 0 54 -38 87 -133
115 -42 13 -77 26 -76 29 0 3 41 38 92 76 81 63 151 134 242 249 l30 38 72
-17 c40 -9 75 -20 78 -25 3 -5 -2 -53 -11 -107 -21 -127 -14 -306 16 -418 64
-238 233 -413 475 -491 107 -34 269 -43 377 -21 161 34 246 102 321 258 23 48
45 88 49 88 14 2 133 -176 184 -274 28 -55 66 -140 84 -190 63 -173 99 -203
343 -281 168 -54 207 -80 226 -149 6 -24 11 -131 11 -265 0 -197 -3 -230 -19
-265 -32 -71 -28 -69 -345 -171 -150 -48 -220 -76 -250 -98 -23 -18 -73 -80
-116 -144 -171 -255 -363 -429 -652 -594 -71 -41 -116 -73 -128 -93 -16 -28
-34 -112 -121 -580 -16 -88 -34 -170 -39 -182 -10 -23 -10 -23 -244 -23 -192
0 -236 3 -246 15 -6 8 -22 74 -35 147 -55 309 -63 331 -135 363 -40 18 -45 18
-163 1 -161 -24 -634 -33 -817 -16 -125 11 -132 11 -173 -9 -23 -12 -49 -31
-58 -44 -17 -23 -46 -150 -74 -315 -9 -51 -20 -104 -25 -117 l-10 -25 -239 0
-239 0 -10 28 c-6 15 -29 126 -52 247 -67 355 -89 455 -108 480 -9 12 -64 51
-122 85 -454 271 -723 669 -802 1186 -16 104 -16 446 1 558 71 501 310 878
727 1149 105 68 114 78 114 128 0 41 -15 66 -50 84 -45 23 -60 19 -155 -40
-277 -174 -497 -410 -639 -683 -75 -146 -136 -328 -176 -525 -13 -63 -30 -68
-30 -8 0 142 -116 312 -246 360 -142 53 -270 -2 -344 -148 -51 -103 -38 -194
43 -278 36 -39 150 -96 231 -117 32 -9 61 -18 64 -21 10 -9 -86 -100 -141
-133 -55 -33 -150 -62 -203 -62 -21 0 -42 -10 -63 -29 -43 -40 -44 -100 -2
-142 26 -25 37 -29 87 -29 93 0 206 36 290 92 78 52 181 157 221 226 15 26 32
42 44 42 18 0 19 -9 19 -139 0 -710 294 -1251 880 -1619 83 -52 96 -64 101
-93 58 -316 123 -631 138 -663 10 -23 33 -55 52 -70 65 -55 78 -57 371 -57
303 1 324 5 385 74 39 44 55 97 89 282 14 77 28 143 32 147 4 4 81 2 172 -4
175 -11 443 -6 625 13 61 6 121 12 134 12 24 2 26 -2 63 -191 42 -213 57 -248
128 -297 l43 -30 288 -3 c321 -3 328 -2 395 70 50 52 57 81 130 483 8 44 21
116 30 160 9 44 19 95 23 114 5 30 18 41 121 103 295 179 501 377 684 654 l46
72 148 47 c372 119 379 122 448 198 85 92 89 115 89 452 l0 290 -29 62 c-30
66 -97 137 -156 168 -18 9 -97 37 -174 62 -78 24 -151 51 -164 59 -25 16 -32
30 -87 174 -64 165 -190 366 -309 495 -53 56 -51 39 -20 235 24 148 24 469 1
563 -48 194 -142 251 -352 217 -163 -27 -463 -133 -773 -275 l-83 -38 -77 18
c-42 10 -81 22 -85 25 -4 4 1 28 12 54 46 106 82 277 83 392 1 52 -2 60 -31
86 -70 62 -161 10 -161 -94 0 -146 -71 -351 -176 -510 -104 -157 -242 -279
-411 -363 l-93 -47 -132 13 c-90 8 -198 9 -342 4 -116 -4 -231 -8 -256 -8 -35
-1 -64 8 -130 42 -525 268 -733 909 -464 1431 237 461 778 686 1266 526 125
-41 166 -61 273 -131 129 -85 259 -229 349 -386 42 -74 106 -90 157 -40 43 44
40 89 -14 179 -175 293 -446 497 -772 583 -105 27 -140 31 -280 35 -103 2
-187 -1 -235 -10z m2528 -1710 c30 -94 32 -386 2 -560 -29 -173 -87 -353 -144
-451 -34 -57 -92 -91 -181 -105 -125 -20 -278 9 -389 74 -118 69 -204 204
-231 360 -19 112 -19 153 1 283 14 87 22 111 43 134 49 54 570 258 751 294 36
8 81 13 100 12 31 -2 36 -6 48 -41z m-4784 -1400 c41 -17 79 -66 100 -129 9
-26 16 -50 16 -54 0 -22 -195 44 -225 77 -22 24 -11 63 27 95 34 29 38 30 82
11z"/>
<path d="M3372 6168 c-7 -7 -12 -25 -12 -40 0 -22 -6 -29 -27 -34 -95 -21
-140 -42 -189 -86 -84 -77 -114 -191 -79 -302 31 -97 101 -157 258 -220 l37
-15 0 -185 0 -185 -32 5 c-46 8 -100 37 -159 84 -28 22 -57 40 -64 40 -7 0
-27 -12 -44 -26 -26 -22 -31 -33 -31 -70 0 -92 118 -172 293 -199 32 -5 37 -9
37 -33 0 -35 17 -52 49 -52 39 0 53 14 54 53 1 31 4 36 31 41 50 9 149 61 177
92 88 95 113 257 59 382 -29 68 -98 131 -193 176 l-77 36 0 156 0 157 38 -5
c21 -3 63 -17 94 -32 66 -31 98 -25 123 23 44 85 -14 137 -185 166 -58 9 -65
13 -68 35 -2 14 -9 31 -14 38 -13 15 -60 16 -76 0z m-2 -368 c0 -77 -2 -140
-5 -140 -13 0 -82 40 -102 59 -67 64 -39 177 52 209 56 20 55 23 55 -128z
m119 -384 c45 -24 91 -83 93 -119 4 -90 -14 -134 -65 -166 -66 -41 -67 -40
-67 139 0 88 2 160 5 160 4 0 19 -7 34 -14z"/>
<path d="M5249 3471 c-21 -21 -29 -39 -29 -63 1 -140 94 -259 229 -294 110
-28 218 3 294 85 50 53 87 140 87 202 0 87 -103 133 -164 73 -14 -15 -26 -37
-26 -49 0 -37 -27 -91 -54 -109 -35 -22 -97 -21 -129 4 -24 19 -37 47 -51 112
-16 71 -103 92 -157 39z"/>
</g>
</svg>
